<!-- Generated by IcoMoon.io -->
<svg version="1.1" xmlns="http://www.w3.org/2000/svg" width="32" height="32" viewBox="0 0 32 32">
<title>instagram-2w</title>
<path fill="#fff" d="M27.406 6.72c-0.053-1.214-0.25-2.049-0.531-2.773-0.29-0.768-0.737-1.456-1.322-2.027-0.572-0.58-1.264-1.032-2.023-1.317-0.728-0.281-1.558-0.478-2.773-0.531-1.224-0.058-1.612-0.071-4.715-0.071s-3.492 0.013-4.711 0.067c-1.214 0.054-2.049 0.25-2.773 0.531-0.768 0.29-1.456 0.737-2.027 1.322-0.58 0.572-1.031 1.264-1.317 2.023-0.281 0.728-0.478 1.558-0.531 2.773-0.058 1.224-0.072 1.612-0.072 4.715s0.013 3.492 0.067 4.711c0.054 1.214 0.25 2.049 0.531 2.773 0.29 0.768 0.741 1.456 1.322 2.027 0.572 0.58 1.264 1.032 2.023 1.317 0.728 0.281 1.558 0.478 2.773 0.531 1.219 0.054 1.607 0.067 4.711 0.067s3.492-0.013 4.711-0.067c1.215-0.053 2.049-0.25 2.773-0.531 1.536-0.594 2.751-1.808 3.345-3.344 0.281-0.728 0.478-1.558 0.531-2.773 0.053-1.219 0.067-1.608 0.067-4.711s-0.005-3.492-0.058-4.711zM25.348 16.052c-0.049 1.116-0.237 1.719-0.393 2.121-0.384 0.996-1.174 1.786-2.17 2.17-0.402 0.156-1.009 0.344-2.121 0.393-1.206 0.054-1.567 0.067-4.617 0.067s-3.416-0.013-4.617-0.067c-1.116-0.049-1.719-0.236-2.121-0.393-0.496-0.183-0.947-0.473-1.313-0.853-0.38-0.371-0.67-0.817-0.853-1.313-0.156-0.402-0.344-1.009-0.393-2.121-0.054-1.206-0.067-1.567-0.067-4.617s0.013-3.416 0.067-4.617c0.049-1.116 0.237-1.719 0.393-2.121 0.183-0.496 0.473-0.947 0.857-1.313 0.37-0.38 0.817-0.67 1.313-0.853 0.402-0.156 1.009-0.344 2.121-0.393 1.206-0.054 1.567-0.067 4.617-0.067 3.054 0 3.416 0.013 4.617 0.067 1.116 0.049 1.719 0.237 2.121 0.393 0.495 0.183 0.947 0.473 1.313 0.853 0.379 0.371 0.67 0.817 0.853 1.313 0.156 0.402 0.344 1.009 0.393 2.121 0.054 1.206 0.067 1.567 0.067 4.617s-0.013 3.407-0.067 4.613z"></path>
<path fill="#fff" d="M16.042 5.559c-3.242 0-5.872 2.63-5.872 5.872s2.63 5.872 5.872 5.872c3.242 0 5.872-2.63 5.872-5.872s-2.63-5.872-5.872-5.872zM16.042 15.24c-2.103 0-3.809-1.706-3.809-3.809s1.706-3.809 3.809-3.809c2.103 0 3.809 1.706 3.809 3.809s-1.706 3.809-3.809 3.809z"></path>
<path fill="#fff" d="M23.517 5.327c0 0.757-0.614 1.371-1.371 1.371s-1.371-0.614-1.371-1.371c0-0.757 0.614-1.371 1.371-1.371s1.371 0.614 1.371 1.371z"></path>
</svg>
